# xmcd
#
# Track frame offsets:
#	150
#	18026
#	35064
#	52868
#	70742
#	86536
#	107302
#	129776
#	153475
#	173516
#	193967
#	216067
#
# Disc length: 3105 seconds
#
# Revision: 0
# Processed by: cddbd v1.5.2PL0 Copyright (c) Steve Scherf et al.
# Submitted via: EasyCDDAExtractor 16.0.9.1
#
DISCID=8d0c1f0c
DTITLE=Ray Charles - N-069 Ray Chatles  Genius Loves Company
DYEAR=1900
DGENRE=R and B
TTITLE0=Here We Go Again (with Norah Jones)
TTITLE1=Sweet Potato Pie (with James Taylor)
TTITLE2=You Don't Know Me (with Diana Krall)
TTITLE3=Sorry Seems To Be The Hardest Word (with Elton John)
TTITLE4=Fever (with Natalie Cole)
TTITLE5=Do I Ever Cross Your Mind? (with Bonnie Raitt)
TTITLE6=It Was A Very Good Year (with Willie Nelson)
TTITLE7=Hey Girl (with Michael McDonald)
TTITLE8=Sinner's Prayer (with BB King)
TTITLE9=Heaven Help Us All (with Gladys Knight)
TTITLE10=Over The Rainbow (with Johnny Mathis)
TTITLE11=Crazy Love (with Van Morrison)
EXTD=
EXTT0=
EXTT1=
EXTT2=
EXTT3=
EXTT4=
EXTT5=
EXTT6=
EXTT7=
EXTT8=
EXTT9=
EXTT10=
EXTT11=
PLAYORDER=
